<?xml version="1.0" encoding="UTF-8"?>
<svg width="439px" height="231px" viewBox="0 0 439 231" version="1.1" xmlns="http://www.w3.org/2000/svg" xmlns:xlink="http://www.w3.org/1999/xlink">
    <!-- Generator: Sketch 62 (91390) - https://sketch.com -->
    <title>Artboard</title>
    <desc>Created with Sketch.</desc>
    <g id="Artboard" stroke="none" stroke-width="1" fill="none" fill-rule="evenodd">
        <rect fill="#F2F6F7" x="0" y="0" width="439" height="231"></rect>
        <path d="M66.18,105 L66.18,82.76 L75.46,82.76 L89.46,105 L101.14,105 L86.34,81.96 C94.74,79.96 99.7,74.2 99.7,65.16 C99.7,53.56 91.7,47.56 78.9,47.56 L55.94,47.56 L55.94,105 L66.18,105 Z M78.34,73.96 L66.18,73.96 L66.18,56.36 L78.34,56.36 C85.7,56.36 89.62,59.48 89.62,65.16 C89.62,70.76 85.7,73.96 78.34,73.96 Z M125.54,105.88 C133.94,105.88 140.58,101.48 143.54,94.12 L135.3,91 C134.02,95.32 130.26,97.72 125.54,97.72 C119.38,97.72 115.06,93.32 114.34,86.12 L143.78,86.12 L143.78,82.92 C143.78,71.4 137.3,62.2 125.14,62.2 C113.46,62.2 105.14,71.72 105.14,84.04 C105.14,97 113.54,105.88 125.54,105.88 Z M134.1,78.92 L114.82,78.92 C116.26,73.24 120.1,70.28 125.06,70.28 C131.14,70.28 134.02,74.28 134.1,78.92 Z M166.82,105.88 C172.26,105.88 176.26,103.72 178.9,100.6 L178.9,105 L188.5,105 L188.5,47.56 L178.9,47.56 L178.9,67.48 C176.26,64.36 172.26,62.2 166.82,62.2 C155.06,62.2 148.34,72.12 148.34,84.04 C148.34,95.96 155.06,105.88 166.82,105.88 Z M168.74,97.48 C161.78,97.48 158.02,92.04 158.02,84.04 C158.02,76.04 161.78,70.6 168.74,70.6 C174.66,70.6 179.14,74.92 179.14,82.84 L179.14,85.32 C179.14,93.08 174.66,97.48 168.74,97.48 Z M216.34,105.88 C224.74,105.88 231.38,101.48 234.34,94.12 L226.1,91 C224.82,95.32 221.06,97.72 216.34,97.72 C210.18,97.72 205.86,93.32 205.14,86.12 L234.58,86.12 L234.58,82.92 C234.58,71.4 228.1,62.2 215.94,62.2 C204.26,62.2 195.94,71.72 195.94,84.04 C195.94,97 204.34,105.88 216.34,105.88 Z M224.9,78.92 L205.62,78.92 C207.06,73.24 210.9,70.28 215.86,70.28 C221.94,70.28 224.82,74.28 224.9,78.92 Z M256.66,105.88 C266.18,105.88 273.94,100.44 273.94,91.96 C273.94,82.36 264.98,80.84 257.86,79.32 C252.58,78.2 249.54,77.64 249.54,74.6 C249.54,71.8 252.1,70.04 256.02,70.04 C260.66,70.04 264.66,72.2 267.06,75.96 L273.54,70.12 C270.5,65.48 263.94,62.2 256.58,62.2 C246.9,62.2 240.18,67.8 240.18,75.48 C240.18,84.44 247.78,86.12 254.42,87.48 C261.06,88.84 264.58,89.24 264.58,92.84 C264.58,96.6 260.82,98.04 256.74,98.04 C251.86,98.04 247.06,95.32 244.58,91.24 L237.38,97 C241.14,102.76 248.9,105.88 256.66,105.88 Z M291.06,57.4 L291.06,47.56 L281.14,47.56 L281.14,57.4 L291.06,57.4 Z M290.9,105 L290.9,63 L281.3,63 L281.3,105 L290.9,105 Z M317.86,120.28 C329.86,120.28 338.34,113.16 338.34,100.76 L338.34,63 L328.74,63 L328.74,67.48 C326.5,64.52 322.18,62.2 316.9,62.2 C305.38,62.2 298.5,71.56 298.5,83.08 C298.5,94.6 305.38,103.96 316.9,103.96 C322.26,103.96 326.5,101.64 328.74,98.68 L328.74,101.64 C328.74,109.32 324.34,112.52 317.86,112.52 C312.58,112.52 308.98,109.56 307.7,104.84 L298.74,108.04 C301.38,116.2 308.18,120.28 317.86,120.28 Z M318.74,95.56 C312.1,95.56 308.18,90.84 308.18,83.08 C308.18,75.24 312.1,70.6 318.74,70.6 C324.74,70.6 328.9,75 328.9,82.68 L328.9,83.64 C328.9,91.16 324.74,95.56 318.74,95.56 Z M358.1,105 L358.1,80.36 C358.1,74.36 362.5,71.16 366.82,71.16 C372.1,71.16 374.18,74.92 374.18,80.12 L374.18,105 L383.78,105 L383.78,77.32 C383.78,68.28 378.5,62.2 369.7,62.2 C364.26,62.2 360.5,64.68 358.1,67.48 L358.1,63 L348.5,63 L348.5,105 L358.1,105 Z" id="Redesign" fill="#000000" fill-rule="nonzero" opacity="0.3"></path>
        <path d="M65.96,175 L65.96,152.76 L75.24,152.76 L89.24,175 L100.92,175 L86.12,151.96 C94.52,149.96 99.48,144.2 99.48,135.16 C99.48,123.56 91.48,117.56 78.68,117.56 L55.72,117.56 L55.72,175 L65.96,175 Z M78.12,143.96 L65.96,143.96 L65.96,126.36 L78.12,126.36 C85.48,126.36 89.4,129.48 89.4,135.16 C89.4,140.76 85.48,143.96 78.12,143.96 Z M125.32,175.88 C133.72,175.88 140.36,171.48 143.32,164.12 L135.08,161 C133.8,165.32 130.04,167.72 125.32,167.72 C119.16,167.72 114.84,163.32 114.12,156.12 L143.56,156.12 L143.56,152.92 C143.56,141.4 137.08,132.2 124.92,132.2 C113.24,132.2 104.92,141.72 104.92,154.04 C104.92,167 113.32,175.88 125.32,175.88 Z M133.88,148.92 L114.6,148.92 C116.04,143.24 119.88,140.28 124.84,140.28 C130.92,140.28 133.8,144.28 133.88,148.92 Z M166.6,175.88 C172.04,175.88 176.04,173.72 178.68,170.6 L178.68,175 L188.28,175 L188.28,117.56 L178.68,117.56 L178.68,137.48 C176.04,134.36 172.04,132.2 166.6,132.2 C154.84,132.2 148.12,142.12 148.12,154.04 C148.12,165.96 154.84,175.88 166.6,175.88 Z M168.52,167.48 C161.56,167.48 157.8,162.04 157.8,154.04 C157.8,146.04 161.56,140.6 168.52,140.6 C174.44,140.6 178.92,144.92 178.92,152.84 L178.92,155.32 C178.92,163.08 174.44,167.48 168.52,167.48 Z M216.12,175.88 C224.52,175.88 231.16,171.48 234.12,164.12 L225.88,161 C224.6,165.32 220.84,167.72 216.12,167.72 C209.96,167.72 205.64,163.32 204.92,156.12 L234.36,156.12 L234.36,152.92 C234.36,141.4 227.88,132.2 215.72,132.2 C204.04,132.2 195.72,141.72 195.72,154.04 C195.72,167 204.12,175.88 216.12,175.88 Z M224.68,148.92 L205.4,148.92 C206.84,143.24 210.68,140.28 215.64,140.28 C221.72,140.28 224.6,144.28 224.68,148.92 Z M256.44,175.88 C265.96,175.88 273.72,170.44 273.72,161.96 C273.72,152.36 264.76,150.84 257.64,149.32 C252.36,148.2 249.32,147.64 249.32,144.6 C249.32,141.8 251.88,140.04 255.8,140.04 C260.44,140.04 264.44,142.2 266.84,145.96 L273.32,140.12 C270.28,135.48 263.72,132.2 256.36,132.2 C246.68,132.2 239.96,137.8 239.96,145.48 C239.96,154.44 247.56,156.12 254.2,157.48 C260.84,158.84 264.36,159.24 264.36,162.84 C264.36,166.6 260.6,168.04 256.52,168.04 C251.64,168.04 246.84,165.32 244.36,161.24 L237.16,167 C240.92,172.76 248.68,175.88 256.44,175.88 Z M290.84,127.4 L290.84,117.56 L280.92,117.56 L280.92,127.4 L290.84,127.4 Z M290.68,175 L290.68,133 L281.08,133 L281.08,175 L290.68,175 Z M316.68,190.28 C329.88,190.28 339.24,185.24 339.24,175.88 C339.24,169.32 335,165.4 326.28,165.4 L310.36,165.4 C308.36,165.4 307.32,164.44 307.32,163 C307.32,161.48 309,160.44 310.68,160.2 C312.52,160.68 314.52,161 316.68,161 C326.52,161 333.64,155.08 333.64,146.6 C333.64,145.56 333.56,144.52 333.32,143.56 C334.52,140.68 337.96,140.68 340.68,141.8 L340.68,132.04 C336.68,131.4 331.72,132.76 329.56,136.84 C326.52,133.88 321.96,132.2 316.68,132.2 C306.84,132.2 299.8,138.04 299.8,146.6 C299.8,150.76 301.48,154.2 304.28,156.76 C301.08,158.2 298.6,161.08 298.6,164.76 C298.6,168.12 300.04,170.12 301.8,171.56 C299,173.16 296.92,175.8 296.92,179.4 C296.92,186.84 305.16,190.28 316.68,190.28 Z M316.68,153.48 C312.2,153.48 309.24,151 309.24,146.6 C309.24,142.28 312.2,139.72 316.68,139.72 C321.16,139.72 324.2,142.28 324.2,146.6 C324.2,151 321.16,153.48 316.68,153.48 Z M317.24,182.52 C310.52,182.52 306.12,181.32 306.12,177.48 C306.12,174.84 308.2,173.56 311.24,173.56 L325.24,173.56 C328.6,173.56 330.2,174.52 330.2,177.08 C330.2,180.44 325.4,182.52 317.24,182.52 Z M355.32,175 L355.32,150.36 C355.32,144.36 359.72,141.16 364.04,141.16 C369.32,141.16 371.4,144.92 371.4,150.12 L371.4,175 L381,175 L381,147.32 C381,138.28 375.72,132.2 366.92,132.2 C361.48,132.2 357.72,134.68 355.32,137.48 L355.32,133 L345.72,133 L345.72,175 L355.32,175 Z" id="Redesign" fill="#000000" fill-rule="nonzero"></path>
    </g>
</svg>